<?xml version="1.0"?>
<svg version="1.1" xmlns="http://www.w3.org/2000/svg" width="255" height="50" style=""><path fill="#0011ff" d="M36.12,38.96q3.88,0.12,4.1,0.12l0.26,0q0.96-0.08,0.96,0.28q0,0.56-1.56,0.56l-3.4-0.08q-1.04,0.08-1.24,0.2q-1.68,2.08-4.52,6.02t-2.84,4.7q0,0.32,0.72-0.16q0.44,0,0.44,0.12q0,0.2-0.88,0.6l-1.12,0.6q-0.76,0.64-1.74,0.64t-0.9-0.48q0.04-0.96,2.84-4.86t5.8-7.42q-2.88,0.52-4.4,0.52q-0.16-0.04-0.16-0.26t0.48-0.62t1.02-0.4t1.74-0.04l2.04,0q1.36-1.84,6.04-8.48q1.92-2.76,1.92-4.56q0-2.8-4.16-2.8q-3.24,0-7.62,1.8t-8.06,4.92q-2.6,2.16-4.12,4.68t-1.52,4.48q0,3.16,3.76,3.16q0.32,0,0.68-0.04q2.44-0.2,4.62-2.78t2.18-4.34q0-0.16-0.04-0.36q1.04,0.2,1.04,1.24q0,1.72-2.24,4.04q-3.04,3.16-7.04,3.16q-2.2,0-3.44-1.16t-1.24-3.16q0-4.72,5.76-9.52q4.16-3.4,8.84-5.14t8.14-1.74t5.16,1t1.7,2.78t-1.56,4.02q-0.92,1.48-6.44,8.76z M52.4868,40.52q0,1.4-2.68,4.68q-3.16,3.88-5.4,3.88l-0.64,0q-1.04,0-1.64-1.08q-0.48-0.76-0.48-1.68q0-2.4,3.5-6.74t5.66-4.34q2.04,0,2.04,2.16q0,0.56-0.2,1.44q0.04,0.12,0.76,0.12t2.2-0.76q-0.04,0.68-3.16,1.96q0.04,0.16,0.04,0.36z M49.8868,38.44q-1.36,0-3.86,3.2t-2.5,4.72t0.96,1.52q1.72,0,4.36-3.12t2.64-4.48q-0.64-0.36-1.6-1.84z M65.4936,40.52q0,1.4-2.68,4.68q-3.16,3.88-5.4,3.88l-0.64,0q-1.04,0-1.64-1.08q-0.48-0.76-0.48-1.68q0-2.4,3.5-6.74t5.66-4.34q2.04,0,2.04,2.16q0,0.56-0.2,1.44q0.04,0.12,0.76,0.12t2.2-0.76q-0.04,0.68-3.16,1.96q0.04,0.16,0.04,0.36z M62.8936,38.44q-1.36,0-3.86,3.2t-2.5,4.72t0.96,1.52q1.72,0,4.36-3.12t2.64-4.48q-0.64-0.36-1.6-1.84z M81.1804,36.88q4.48-7.28,6.24-7.28q0.28,0,0.78,0.18t0.5,0.54q0,0.2-0.2,0.52q-3.2,3.92-4.76,5.88q-4.72,5.96-5.2,8.56q-0.12,0.56-0.12,1.12q0,1.8,1.48,1.8q2.96,0,7.72-5.48q0.4-0.4,0.68-0.46t0.28,0.14t-0.24,0.48q-4.64,5.56-8.24,6.2q-0.2,0.04-0.56,0.04q-1.24,0-1.86-0.86t-0.62-1.86q0-1.12,0.44-2.48l-3.24,3.24q-2.2,2.04-3.46,2.04t-2.1-0.68q-1-0.76-1-2.12q0-2.92,4.08-6.98t7.48-4.06q1.12,0,1.56,0.6q0.16,0.2,0.36,0.92z M69.3804,46.88q0,1.44,1,1.44q1.72,0,5.72-4.72q0.72-0.84,4.8-6.28q-0.28-0.48-0.96-0.48q-2.48,0-6.52,3.78t-4.04,6.26z M91.3872,48.2q1.32,0,3.4-1.4t4.04-3.8q0.48-0.64,0.76-0.64t0.28,0.24t-1.64,2.08q-4,4.4-6.68,4.4q-1.32,0-2.24-0.62t-0.92-1.92t0.68-3.02q1.16-2.72,3.72-6.84q4.68-7.6,6.64-7.6q0.4,0,0.82,0.3t0.46,0.66q-0.92,1.24-3.54,4.76t-3.62,5.06t-1.5,2.3t-0.74,1.18t-0.56,1.1q-0.68,1.36-0.68,2.56t1.32,1.2z M110.434,40.52q0,1.4-2.68,4.68q-3.16,3.88-5.4,3.88l-0.64,0q-1.04,0-1.64-1.08q-0.48-0.76-0.48-1.68q0-2.4,3.5-6.74t5.66-4.34q2.04,0,2.04,2.16q0,0.56-0.2,1.44q0.04,0.12,0.76,0.12t2.2-0.76q-0.04,0.68-3.16,1.96q0.04,0.16,0.04,0.36z M107.834,38.44q-1.36,0-3.86,3.2t-2.5,4.72t0.96,1.52q1.72,0,4.36-3.12t2.64-4.48q-0.64-0.36-1.6-1.84z M123.8408,33.28q1.2,0,2.04,0.8t0.84,2.24q0,3.16-5.24,7.92q-4.44,4-7.16,4.88q-0.44,0-1.16-0.48t-0.72-0.88q0-0.88,1.92-5.96t2.64-5.68q0.16-0.16,0.52-0.16t0.76,0.38t0.44,0.9q0,0.04-1.98,4.64t-1.86,5.48q1.72-0.52,6.14-4.2t4.42-6.6q0-1.76-1.76-2.56q-0.28-0.12-0.28-0.36q0-0.36,0.44-0.36z M128.8476,49.52q-0.44,0-0.8-0.12q-2.56-0.72-2.56-2.88q0-2.8,3.52-6.48t6.32-3.68q0.92,0,1.5,0.5t0.58,1.22q0,2.24-3.38,4.28t-5.5,2.04q-0.32,0-0.56-0.08q-0.6,1.08-0.6,2.28q0,2.08,1.98,2.08t5.14-2.68q2.44-1.96,4.16-4.16q0.36-0.48,0.62-0.48t0.26,0.24t-0.32,0.68q-2.16,2.84-5.2,5.04t-5.16,2.2z M136.4076,38q0-0.48-1.02-0.48t-2.9,1.56q-2.52,2.08-3.92,4.36q0.24,0.08,0.52,0.08q1.52,0,4.06-1.62t3.18-3.54q0.08-0.2,0.08-0.36z M147.0144,49.2q-3,0-3-3.32q0-1.68,0.88-3.68t1.92-3.36q-0.2,0.04-0.52,0.04q-0.96,0-1.6-1.36l-2.96,3.84q-2.48,3.08-2.88,3.08q-0.2,0-0.2-0.16q0-0.4,0.68-1.16q3.48-4.04,4.92-6.84q0.92-3.48,2.32-3.48q0.92,0,0.92,0.8t-1,2.04l-0.96,1.28q0,0.84,1.24,0.84q0.72,0,1.6-0.52l1.04-0.64q0.08-0.04,0.4-0.04t0.68,0.4t0.24,0.72l-2.76,3.48q-2.56,3.28-2.56,5.18t1.76,1.9q1.84,0,4.52-1.96q1.6-1.16,2.92-2.6q1.24-1.44,1.36-1.44q0.28,0,0.28,0.3t-0.36,0.7l-1.28,1.44q-1.08,1.12-2.4,2.16q-3.16,2.36-5.2,2.36z"/><path fill="#" d=""/></svg>
